<svg width="1440" height="789" viewBox="0 0 1440 789" fill="none" xmlns="http://www.w3.org/2000/svg">
<path d="M-19 107V223C-19 227.971 -14.9706 232 -10 232H1003C1007.97 232 1012 236.029 1012 241V353.5C1012 358.471 1016.03 362.5 1021 362.5H1321C1325.97 362.5 1330 366.529 1330 371.5V406V440.5C1330 445.471 1325.97 449.5 1321 449.5H198.5C193.529 449.5 189.5 453.529 189.5 458.5V571.5C189.5 576.471 193.529 580.5 198.5 580.5H584.5C589.471 580.5 593.5 584.529 593.5 589.5V789M1377.5 753.5V639.5C1377.5 634.529 1373.47 630.5 1368.5 630.5H1021C1016.03 630.5 1012 626.471 1012 621.5V609V529.5M1222.5 290V137.5C1222.5 132.529 1226.53 128.5 1231.5 128.5H1457M258 0.5V111.5C258 116.471 253.971 120.5 249 120.5H-4" stroke="url(#paint0_linear_420_1697)" stroke-opacity="0.6" stroke-width="2"/>
<path d="M-19 107V223C-19 227.971 -14.9706 232 -10 232H1003C1007.97 232 1012 236.029 1012 241V353.5C1012 358.471 1016.03 362.5 1021 362.5H1321C1325.97 362.5 1330 366.529 1330 371.5V406V440.5C1330 445.471 1325.97 449.5 1321 449.5H198.5C193.529 449.5 189.5 453.529 189.5 458.5V571.5C189.5 576.471 193.529 580.5 198.5 580.5H584.5C589.471 580.5 593.5 584.529 593.5 589.5V789M1377.5 753.5V639.5C1377.5 634.529 1373.47 630.5 1368.5 630.5H1021C1016.03 630.5 1012 626.471 1012 621.5V609V529.5M1222.5 290V137.5C1222.5 132.529 1226.53 128.5 1231.5 128.5H1457M258 0.5V111.5C258 116.471 253.971 120.5 249 120.5H-4" stroke="url(#paint1_linear_420_1697)" stroke-width="2"/>
<defs>
<linearGradient id="paint0_linear_420_1697" x1="-76.9269" y1="21.753" x2="1569.74" y2="284.066" gradientUnits="userSpaceOnUse">
<stop stop-color="#27BCEB"/>
<stop offset="1" stop-color="#7CEFFF"/>
</linearGradient>
<linearGradient id="paint1_linear_420_1697" x1="739" y1="-37" x2="738.5" y2="789.001" gradientUnits="userSpaceOnUse">
<stop offset="0.03125" stop-color="#FFFDFC"/>
<stop offset="0.197917" stop-color="#FFFDFC" stop-opacity="0"/>
<stop offset="0.723958" stop-color="#FFFDFC" stop-opacity="0"/>
<stop offset="0.96875" stop-color="#FFFDFC"/>
</linearGradient>
</defs>
</svg>
